<?xml version="1.0" standalone="no"?>
<!DOCTYPE svg PUBLIC "-//W3C//DTD SVG 20010904//EN"
 "http://www.w3.org/TR/2001/REC-SVG-20010904/DTD/svg10.dtd">
<svg version="1.0" xmlns="http://www.w3.org/2000/svg"
 width="260.000000pt" height="260.000000pt" viewBox="0 0 260.000000 260.000000"
 preserveAspectRatio="xMidYMid meet">
<metadata>
Created by potrace 1.14, written by Peter Selinger 2001-2017
</metadata>
<g transform="translate(0.000000,260.000000) scale(0.100000,-0.100000)"
fill="#000000" stroke="none">
<path d="M970 2525 l0 -75 -150 0 -150 0 0 -90 0 -90 -170 0 -170 0 0 -75 0
-75 -90 0 -90 0 0 -170 0 -170 -75 0 -75 0 0 -405 0 -405 75 0 75 0 0 -170 0
-170 165 0 165 0 0 -75 0 -75 335 0 335 0 0 -165 0 -165 -90 0 -90 0 0 -75 0
-75 330 0 330 0 0 75 0 75 -90 0 -90 0 0 165 0 165 500 0 500 0 0 245 0 245
75 0 75 0 0 330 0 330 -75 0 -75 0 0 320 0 320 -90 0 -90 0 0 90 0 90 -320 0
-320 0 0 75 0 75 -330 0 -330 0 0 -75z m180 -500 l0 -95 75 0 75 0 0 -75 0
-75 -75 0 -75 0 0 -165 0 -165 75 0 75 0 0 -75 0 -75 75 0 75 0 0 -75 0 -75
-75 0 -75 0 0 -165 0 -165 -75 0 -75 0 0 75 0 75 -90 0 -90 0 0 480 0 480 -75
0 -75 0 0 -75 0 -75 -75 0 -75 0 0 75 0 75 75 0 75 0 0 95 0 95 165 0 165 0 0
-95z m820 0 l0 -95 -170 0 -170 0 0 95 0 95 170 0 170 0 0 -95z m-340 -320 l0
-75 75 0 75 0 0 -90 0 -90 -165 0 -165 0 0 165 0 165 90 0 90 0 0 -75z m490 0
l0 -75 75 0 75 0 0 -240 0 -240 -150 0 -150 0 0 -90 0 -90 -95 0 -95 0 0 165
0 165 95 0 95 0 0 240 0 240 75 0 75 0 0 -75z m-1450 -165 l0 -90 75 0 75 0 0
-150 0 -150 -75 0 -75 0 0 75 0 75 -95 0 -95 0 0 165 0 165 95 0 95 0 0 -90z"/>
</g>
</svg>
